<?xml version="1.0" encoding="utf-8"?>
<!-- Generator: Adobe Illustrator 21.0.0, SVG Export Plug-In . SVG Version: 6.00 Build 0)  -->
<svg version="1.1" id="Capa_1" xmlns="http://www.w3.org/2000/svg" xmlns:xlink="http://www.w3.org/1999/xlink" x="0px" y="0px"
	 viewBox="0 0 500 500" style="enable-background:new 0 0 500 500;" xml:space="preserve">
<style type="text/css">
	.st0{fill:#FFFFFF;}
	.st1{fill:#F9264F;}
</style>
<path class="st0" d="M401,410.3L104,84.6c-2.5-2.7-7-1-7,2.7v117.9c0,7.6,2.9,14.9,8.1,20.5l169.5,181.8c5.7,6.1,13.6,9.5,21.9,9.5
	l101.4,0C401.5,417,403.3,412.9,401,410.3z"/>
<path class="st1" d="M97,287.4V413c0,2.2,1.8,4,4,4h113.5c3.5,0,5.3-4.1,3-6.7L104,284.7C101.5,282,97,283.7,97,287.4z"/>
<path class="st0" d="M280.5,212.9V87.3c0-2.2,1.8-4,4-4H398c3.5,0,5.3,4.1,3,6.7L287.5,215.6C285,218.3,280.5,216.6,280.5,212.9z"/>
</svg>
